<mxfile host="app.diagrams.net" modified="2024-05-30T11:01:52.413Z" agent="Mozilla/5.0 (Windows NT 10.0; Win64; x64) AppleWebKit/537.36 (KHTML, like Gecko) Chrome/125.0.0.0 Safari/537.36" etag="Q7gK7_JFYS3Je-ntLEXu" version="24.4.10" type="github">
  <diagram name="第 1 页" id="i5EgoVVzX9Oh_FdDIQpJ">
    <mxGraphModel dx="1434" dy="1925" grid="1" gridSize="10" guides="1" tooltips="1" connect="1" arrows="1" fold="1" page="1" pageScale="1" pageWidth="827" pageHeight="1169" math="0" shadow="0">
      <root>
        <mxCell id="0" />
        <mxCell id="1" parent="0" />
        <mxCell id="UwHMT7bVEP6EMX6R1qHx-1" value="Trie树匹配" style="text;html=1;align=center;verticalAlign=middle;whiteSpace=wrap;rounded=0;fontFamily=Architects Daughter;fontSource=https%3A%2F%2Ffonts.googleapis.com%2Fcss%3Ffamily%3DArchitects%2BDaughter;" vertex="1" parent="1">
          <mxGeometry x="520" y="-1060" width="120" height="20" as="geometry" />
        </mxCell>
        <mxCell id="UwHMT7bVEP6EMX6R1qHx-2" value="中文匹配" style="text;html=1;align=center;verticalAlign=middle;whiteSpace=wrap;rounded=0;fontFamily=Architects Daughter;fontSource=https%3A%2F%2Ffonts.googleapis.com%2Fcss%3Ffamily%3DArchitects%2BDaughter;" vertex="1" parent="1">
          <mxGeometry x="267.90999999999997" y="-970" width="60" height="30" as="geometry" />
        </mxCell>
        <mxCell id="UwHMT7bVEP6EMX6R1qHx-3" style="edgeStyle=orthogonalEdgeStyle;rounded=0;hachureGap=4;orthogonalLoop=1;jettySize=auto;html=1;exitX=1;exitY=1;exitDx=0;exitDy=0;entryX=0;entryY=0.5;entryDx=0;entryDy=0;fontFamily=Architects Daughter;fontSource=https%3A%2F%2Ffonts.googleapis.com%2Fcss%3Ffamily%3DArchitects%2BDaughter;curved=1;" edge="1" parent="1" source="UwHMT7bVEP6EMX6R1qHx-4" target="UwHMT7bVEP6EMX6R1qHx-28">
          <mxGeometry relative="1" as="geometry" />
        </mxCell>
        <mxCell id="UwHMT7bVEP6EMX6R1qHx-4" value="习" style="ellipse;whiteSpace=wrap;html=1;aspect=fixed;hachureGap=4;fontFamily=Architects Daughter;fontSource=https%3A%2F%2Ffonts.googleapis.com%2Fcss%3Ffamily%3DArchitects%2BDaughter;" vertex="1" parent="1">
          <mxGeometry x="256.58" y="-600" width="80" height="80" as="geometry" />
        </mxCell>
        <mxCell id="UwHMT7bVEP6EMX6R1qHx-5" value="" style="edgeStyle=orthogonalEdgeStyle;rounded=0;orthogonalLoop=1;jettySize=auto;html=1;" edge="1" parent="1" source="UwHMT7bVEP6EMX6R1qHx-6" target="UwHMT7bVEP6EMX6R1qHx-7">
          <mxGeometry relative="1" as="geometry" />
        </mxCell>
        <mxCell id="UwHMT7bVEP6EMX6R1qHx-6" value="Cloud" style="ellipse;shape=cloud;whiteSpace=wrap;html=1;align=center;" vertex="1" parent="1">
          <mxGeometry x="100" y="-860" width="100" height="60" as="geometry" />
        </mxCell>
        <mxCell id="UwHMT7bVEP6EMX6R1qHx-7" value="[习包子,习近平,64事件,64天安门...]" style="whiteSpace=wrap;html=1;" vertex="1" parent="1">
          <mxGeometry x="270" y="-860" width="200" height="60" as="geometry" />
        </mxCell>
        <mxCell id="UwHMT7bVEP6EMX6R1qHx-8" value="" style="edgeStyle=orthogonalEdgeStyle;rounded=0;hachureGap=4;orthogonalLoop=1;jettySize=auto;html=1;fontFamily=Architects Daughter;fontSource=https%3A%2F%2Ffonts.googleapis.com%2Fcss%3Ffamily%3DArchitects%2BDaughter;curved=1;" edge="1" parent="1" source="UwHMT7bVEP6EMX6R1qHx-10" target="UwHMT7bVEP6EMX6R1qHx-4">
          <mxGeometry relative="1" as="geometry" />
        </mxCell>
        <mxCell id="UwHMT7bVEP6EMX6R1qHx-9" style="edgeStyle=orthogonalEdgeStyle;rounded=0;hachureGap=4;orthogonalLoop=1;jettySize=auto;html=1;exitX=1;exitY=0.5;exitDx=0;exitDy=0;entryX=0;entryY=0.5;entryDx=0;entryDy=0;fontFamily=Architects Daughter;fontSource=https%3A%2F%2Ffonts.googleapis.com%2Fcss%3Ffamily%3DArchitects%2BDaughter;curved=1;" edge="1" parent="1" source="UwHMT7bVEP6EMX6R1qHx-10" target="UwHMT7bVEP6EMX6R1qHx-12">
          <mxGeometry relative="1" as="geometry" />
        </mxCell>
        <mxCell id="UwHMT7bVEP6EMX6R1qHx-10" value="" style="ellipse;whiteSpace=wrap;html=1;aspect=fixed;hachureGap=4;fontFamily=Architects Daughter;fontSource=https%3A%2F%2Ffonts.googleapis.com%2Fcss%3Ffamily%3DArchitects%2BDaughter;" vertex="1" parent="1">
          <mxGeometry x="80" y="-550" width="80" height="80" as="geometry" />
        </mxCell>
        <mxCell id="UwHMT7bVEP6EMX6R1qHx-11" style="edgeStyle=orthogonalEdgeStyle;rounded=0;hachureGap=4;orthogonalLoop=1;jettySize=auto;html=1;exitX=1;exitY=0.5;exitDx=0;exitDy=0;entryX=0;entryY=0.5;entryDx=0;entryDy=0;fontFamily=Architects Daughter;fontSource=https%3A%2F%2Ffonts.googleapis.com%2Fcss%3Ffamily%3DArchitects%2BDaughter;curved=1;" edge="1" parent="1" source="UwHMT7bVEP6EMX6R1qHx-12" target="UwHMT7bVEP6EMX6R1qHx-14">
          <mxGeometry relative="1" as="geometry" />
        </mxCell>
        <mxCell id="UwHMT7bVEP6EMX6R1qHx-12" value="&lt;font face=&quot;Verdana&quot;&gt;6&lt;/font&gt;" style="ellipse;whiteSpace=wrap;html=1;aspect=fixed;hachureGap=4;fontFamily=Architects Daughter;fontSource=https%3A%2F%2Ffonts.googleapis.com%2Fcss%3Ffamily%3DArchitects%2BDaughter;" vertex="1" parent="1">
          <mxGeometry x="250" y="-430" width="80" height="80" as="geometry" />
        </mxCell>
        <mxCell id="UwHMT7bVEP6EMX6R1qHx-13" style="edgeStyle=orthogonalEdgeStyle;rounded=0;hachureGap=4;orthogonalLoop=1;jettySize=auto;html=1;exitX=1;exitY=0.5;exitDx=0;exitDy=0;entryX=0;entryY=0.5;entryDx=0;entryDy=0;fontFamily=Architects Daughter;fontSource=https%3A%2F%2Ffonts.googleapis.com%2Fcss%3Ffamily%3DArchitects%2BDaughter;curved=1;" edge="1" parent="1" source="UwHMT7bVEP6EMX6R1qHx-14" target="UwHMT7bVEP6EMX6R1qHx-16">
          <mxGeometry relative="1" as="geometry" />
        </mxCell>
        <mxCell id="UwHMT7bVEP6EMX6R1qHx-14" value="&lt;font face=&quot;Verdana&quot;&gt;4&lt;/font&gt;" style="ellipse;whiteSpace=wrap;html=1;aspect=fixed;hachureGap=4;fontFamily=Architects Daughter;fontSource=https%3A%2F%2Ffonts.googleapis.com%2Fcss%3Ffamily%3DArchitects%2BDaughter;" vertex="1" parent="1">
          <mxGeometry x="410" y="-430" width="80" height="80" as="geometry" />
        </mxCell>
        <mxCell id="UwHMT7bVEP6EMX6R1qHx-15" style="edgeStyle=orthogonalEdgeStyle;rounded=0;hachureGap=4;orthogonalLoop=1;jettySize=auto;html=1;exitX=1;exitY=0.5;exitDx=0;exitDy=0;entryX=0;entryY=0.5;entryDx=0;entryDy=0;fontFamily=Architects Daughter;fontSource=https%3A%2F%2Ffonts.googleapis.com%2Fcss%3Ffamily%3DArchitects%2BDaughter;curved=1;" edge="1" parent="1" source="UwHMT7bVEP6EMX6R1qHx-16" target="UwHMT7bVEP6EMX6R1qHx-17">
          <mxGeometry relative="1" as="geometry" />
        </mxCell>
        <mxCell id="UwHMT7bVEP6EMX6R1qHx-16" value="&lt;font face=&quot;Verdana&quot;&gt;事&lt;/font&gt;" style="ellipse;whiteSpace=wrap;html=1;aspect=fixed;hachureGap=4;fontFamily=Architects Daughter;fontSource=https%3A%2F%2Ffonts.googleapis.com%2Fcss%3Ffamily%3DArchitects%2BDaughter;" vertex="1" parent="1">
          <mxGeometry x="560" y="-490" width="80" height="80" as="geometry" />
        </mxCell>
        <mxCell id="UwHMT7bVEP6EMX6R1qHx-17" value="&lt;font face=&quot;Verdana&quot;&gt;件&lt;/font&gt;" style="ellipse;whiteSpace=wrap;html=1;aspect=fixed;hachureGap=4;fontFamily=Architects Daughter;fontSource=https%3A%2F%2Ffonts.googleapis.com%2Fcss%3Ffamily%3DArchitects%2BDaughter;" vertex="1" parent="1">
          <mxGeometry x="710" y="-490" width="80" height="80" as="geometry" />
        </mxCell>
        <mxCell id="UwHMT7bVEP6EMX6R1qHx-18" style="edgeStyle=orthogonalEdgeStyle;rounded=0;hachureGap=4;orthogonalLoop=1;jettySize=auto;html=1;exitX=1;exitY=0.5;exitDx=0;exitDy=0;entryX=0;entryY=0.5;entryDx=0;entryDy=0;fontFamily=Architects Daughter;fontSource=https%3A%2F%2Ffonts.googleapis.com%2Fcss%3Ffamily%3DArchitects%2BDaughter;curved=1;" edge="1" parent="1" source="UwHMT7bVEP6EMX6R1qHx-19" target="UwHMT7bVEP6EMX6R1qHx-22">
          <mxGeometry relative="1" as="geometry" />
        </mxCell>
        <mxCell id="UwHMT7bVEP6EMX6R1qHx-19" value="&lt;font face=&quot;Verdana&quot;&gt;天&lt;/font&gt;" style="ellipse;whiteSpace=wrap;html=1;aspect=fixed;hachureGap=4;fontFamily=Architects Daughter;fontSource=https%3A%2F%2Ffonts.googleapis.com%2Fcss%3Ffamily%3DArchitects%2BDaughter;" vertex="1" parent="1">
          <mxGeometry x="580" y="-360" width="80" height="80" as="geometry" />
        </mxCell>
        <mxCell id="UwHMT7bVEP6EMX6R1qHx-20" value="&lt;font face=&quot;Verdana&quot;&gt;门&lt;/font&gt;" style="ellipse;whiteSpace=wrap;html=1;aspect=fixed;hachureGap=4;fontFamily=Architects Daughter;fontSource=https%3A%2F%2Ffonts.googleapis.com%2Fcss%3Ffamily%3DArchitects%2BDaughter;" vertex="1" parent="1">
          <mxGeometry x="840" y="-345" width="80" height="80" as="geometry" />
        </mxCell>
        <mxCell id="UwHMT7bVEP6EMX6R1qHx-21" style="edgeStyle=orthogonalEdgeStyle;rounded=0;hachureGap=4;orthogonalLoop=1;jettySize=auto;html=1;exitX=1;exitY=0.5;exitDx=0;exitDy=0;entryX=0;entryY=0.5;entryDx=0;entryDy=0;fontFamily=Architects Daughter;fontSource=https%3A%2F%2Ffonts.googleapis.com%2Fcss%3Ffamily%3DArchitects%2BDaughter;curved=1;" edge="1" parent="1" source="UwHMT7bVEP6EMX6R1qHx-22" target="UwHMT7bVEP6EMX6R1qHx-20">
          <mxGeometry relative="1" as="geometry" />
        </mxCell>
        <mxCell id="UwHMT7bVEP6EMX6R1qHx-22" value="&lt;font face=&quot;Verdana&quot;&gt;安&lt;/font&gt;" style="ellipse;whiteSpace=wrap;html=1;aspect=fixed;hachureGap=4;fontFamily=Architects Daughter;fontSource=https%3A%2F%2Ffonts.googleapis.com%2Fcss%3Ffamily%3DArchitects%2BDaughter;" vertex="1" parent="1">
          <mxGeometry x="710" y="-350" width="80" height="80" as="geometry" />
        </mxCell>
        <mxCell id="UwHMT7bVEP6EMX6R1qHx-23" style="edgeStyle=orthogonalEdgeStyle;rounded=0;hachureGap=4;orthogonalLoop=1;jettySize=auto;html=1;exitX=1;exitY=0.5;exitDx=0;exitDy=0;entryX=0;entryY=0.5;entryDx=0;entryDy=0;fontFamily=Architects Daughter;fontSource=https%3A%2F%2Ffonts.googleapis.com%2Fcss%3Ffamily%3DArchitects%2BDaughter;curved=1;" edge="1" parent="1" source="UwHMT7bVEP6EMX6R1qHx-14" target="UwHMT7bVEP6EMX6R1qHx-19">
          <mxGeometry relative="1" as="geometry" />
        </mxCell>
        <mxCell id="UwHMT7bVEP6EMX6R1qHx-24" style="edgeStyle=orthogonalEdgeStyle;rounded=0;hachureGap=4;orthogonalLoop=1;jettySize=auto;html=1;exitX=1;exitY=0.5;exitDx=0;exitDy=0;entryX=0;entryY=0.5;entryDx=0;entryDy=0;fontFamily=Architects Daughter;fontSource=https%3A%2F%2Ffonts.googleapis.com%2Fcss%3Ffamily%3DArchitects%2BDaughter;curved=1;" edge="1" parent="1" source="UwHMT7bVEP6EMX6R1qHx-25" target="UwHMT7bVEP6EMX6R1qHx-26">
          <mxGeometry relative="1" as="geometry" />
        </mxCell>
        <mxCell id="UwHMT7bVEP6EMX6R1qHx-25" value="包" style="ellipse;whiteSpace=wrap;html=1;aspect=fixed;hachureGap=4;fontFamily=Architects Daughter;fontSource=https%3A%2F%2Ffonts.googleapis.com%2Fcss%3Ffamily%3DArchitects%2BDaughter;" vertex="1" parent="1">
          <mxGeometry x="380" y="-700" width="80" height="80" as="geometry" />
        </mxCell>
        <mxCell id="UwHMT7bVEP6EMX6R1qHx-26" value="子" style="ellipse;whiteSpace=wrap;html=1;aspect=fixed;hachureGap=4;fontFamily=Architects Daughter;fontSource=https%3A%2F%2Ffonts.googleapis.com%2Fcss%3Ffamily%3DArchitects%2BDaughter;" vertex="1" parent="1">
          <mxGeometry x="550" y="-720" width="80" height="80" as="geometry" />
        </mxCell>
        <mxCell id="UwHMT7bVEP6EMX6R1qHx-27" style="edgeStyle=orthogonalEdgeStyle;rounded=0;hachureGap=4;orthogonalLoop=1;jettySize=auto;html=1;exitX=1;exitY=0.5;exitDx=0;exitDy=0;entryX=0;entryY=0.5;entryDx=0;entryDy=0;fontFamily=Architects Daughter;fontSource=https%3A%2F%2Ffonts.googleapis.com%2Fcss%3Ffamily%3DArchitects%2BDaughter;curved=1;" edge="1" parent="1" source="UwHMT7bVEP6EMX6R1qHx-28" target="UwHMT7bVEP6EMX6R1qHx-29">
          <mxGeometry relative="1" as="geometry" />
        </mxCell>
        <mxCell id="UwHMT7bVEP6EMX6R1qHx-28" value="近" style="ellipse;whiteSpace=wrap;html=1;aspect=fixed;hachureGap=4;fontFamily=Architects Daughter;fontSource=https%3A%2F%2Ffonts.googleapis.com%2Fcss%3Ffamily%3DArchitects%2BDaughter;" vertex="1" parent="1">
          <mxGeometry x="420" y="-590" width="80" height="80" as="geometry" />
        </mxCell>
        <mxCell id="UwHMT7bVEP6EMX6R1qHx-29" value="平" style="ellipse;whiteSpace=wrap;html=1;aspect=fixed;hachureGap=4;fontFamily=Architects Daughter;fontSource=https%3A%2F%2Ffonts.googleapis.com%2Fcss%3Ffamily%3DArchitects%2BDaughter;" vertex="1" parent="1">
          <mxGeometry x="560" y="-600" width="80" height="80" as="geometry" />
        </mxCell>
        <mxCell id="UwHMT7bVEP6EMX6R1qHx-30" style="edgeStyle=orthogonalEdgeStyle;rounded=0;hachureGap=4;orthogonalLoop=1;jettySize=auto;html=1;exitX=1;exitY=0;exitDx=0;exitDy=0;entryX=0.053;entryY=0.82;entryDx=0;entryDy=0;entryPerimeter=0;fontFamily=Architects Daughter;fontSource=https%3A%2F%2Ffonts.googleapis.com%2Fcss%3Ffamily%3DArchitects%2BDaughter;curved=1;" edge="1" parent="1" source="UwHMT7bVEP6EMX6R1qHx-4" target="UwHMT7bVEP6EMX6R1qHx-25">
          <mxGeometry relative="1" as="geometry" />
        </mxCell>
        <mxCell id="UwHMT7bVEP6EMX6R1qHx-31" value="" style="endArrow=classic;html=1;rounded=0;hachureGap=4;fontFamily=Architects Daughter;fontSource=https%3A%2F%2Ffonts.googleapis.com%2Fcss%3Ffamily%3DArchitects%2BDaughter;" edge="1" parent="1">
          <mxGeometry width="50" height="50" relative="1" as="geometry">
            <mxPoint x="280" y="-770" as="sourcePoint" />
            <mxPoint x="280" y="-670" as="targetPoint" />
          </mxGeometry>
        </mxCell>
        <mxCell id="UwHMT7bVEP6EMX6R1qHx-32" value="转为树" style="text;html=1;align=center;verticalAlign=middle;whiteSpace=wrap;rounded=0;fontFamily=Architects Daughter;fontSource=https%3A%2F%2Ffonts.googleapis.com%2Fcss%3Ffamily%3DArchitects%2BDaughter;" vertex="1" parent="1">
          <mxGeometry x="270" y="-750" width="60" height="30" as="geometry" />
        </mxCell>
        <mxCell id="UwHMT7bVEP6EMX6R1qHx-33" value="用户" style="shape=umlActor;verticalLabelPosition=bottom;verticalAlign=top;html=1;outlineConnect=0;hachureGap=4;fontFamily=Architects Daughter;fontSource=https%3A%2F%2Ffonts.googleapis.com%2Fcss%3Ffamily%3DArchitects%2BDaughter;" vertex="1" parent="1">
          <mxGeometry x="80" y="-10" width="30" height="60" as="geometry" />
        </mxCell>
        <mxCell id="UwHMT7bVEP6EMX6R1qHx-34" value="习尼玛近平" style="text;html=1;align=center;verticalAlign=middle;whiteSpace=wrap;rounded=0;fontFamily=Architects Daughter;fontSource=https%3A%2F%2Ffonts.googleapis.com%2Fcss%3Ffamily%3DArchitects%2BDaughter;" vertex="1" parent="1">
          <mxGeometry x="204.59" y="-60" width="90" height="25" as="geometry" />
        </mxCell>
        <mxCell id="UwHMT7bVEP6EMX6R1qHx-35" value="我是习尼玛近平" style="text;html=1;align=center;verticalAlign=middle;whiteSpace=wrap;rounded=0;fontFamily=Architects Daughter;fontSource=https%3A%2F%2Ffonts.googleapis.com%2Fcss%3Ffamily%3DArchitects%2BDaughter;" vertex="1" parent="1">
          <mxGeometry x="204.59" y="40" width="90" height="25" as="geometry" />
        </mxCell>
        <mxCell id="UwHMT7bVEP6EMX6R1qHx-36" value="我是习近平" style="text;html=1;align=center;verticalAlign=middle;whiteSpace=wrap;rounded=0;fontFamily=Architects Daughter;fontSource=https%3A%2F%2Ffonts.googleapis.com%2Fcss%3Ffamily%3DArchitects%2BDaughter;" vertex="1" parent="1">
          <mxGeometry x="204.58999999999997" y="-95" width="90" height="25" as="geometry" />
        </mxCell>
        <mxCell id="UwHMT7bVEP6EMX6R1qHx-37" value="我是习近平的爹" style="text;html=1;align=center;verticalAlign=middle;whiteSpace=wrap;rounded=0;fontFamily=Architects Daughter;fontSource=https%3A%2F%2Ffonts.googleapis.com%2Fcss%3Ffamily%3DArchitects%2BDaughter;" vertex="1" parent="1">
          <mxGeometry x="200" y="90" width="90" height="25" as="geometry" />
        </mxCell>
        <mxCell id="UwHMT7bVEP6EMX6R1qHx-38" value="习近平" style="text;html=1;align=center;verticalAlign=middle;whiteSpace=wrap;rounded=0;fontFamily=Architects Daughter;fontSource=https%3A%2F%2Ffonts.googleapis.com%2Fcss%3Ffamily%3DArchitects%2BDaughter;" vertex="1" parent="1">
          <mxGeometry x="208.57" y="-130" width="90" height="30" as="geometry" />
        </mxCell>
        <mxCell id="UwHMT7bVEP6EMX6R1qHx-39" value="习近平的爹" style="text;html=1;align=center;verticalAlign=middle;whiteSpace=wrap;rounded=0;fontFamily=Architects Daughter;fontSource=https%3A%2F%2Ffonts.googleapis.com%2Fcss%3Ffamily%3DArchitects%2BDaughter;" vertex="1" parent="1">
          <mxGeometry x="200" y="-20" width="90" height="30" as="geometry" />
        </mxCell>
        <mxCell id="UwHMT7bVEP6EMX6R1qHx-40" value="加前缀" style="text;html=1;align=center;verticalAlign=middle;whiteSpace=wrap;rounded=0;fontFamily=Architects Daughter;fontSource=https%3A%2F%2Ffonts.googleapis.com%2Fcss%3Ffamily%3DArchitects%2BDaughter;" vertex="1" parent="1">
          <mxGeometry x="354" y="-97" width="60" height="30" as="geometry" />
        </mxCell>
        <mxCell id="UwHMT7bVEP6EMX6R1qHx-41" value="中间插入" style="text;html=1;align=center;verticalAlign=middle;whiteSpace=wrap;rounded=0;fontFamily=Architects Daughter;fontSource=https%3A%2F%2Ffonts.googleapis.com%2Fcss%3Ffamily%3DArchitects%2BDaughter;" vertex="1" parent="1">
          <mxGeometry x="350" y="-65" width="60" height="30" as="geometry" />
        </mxCell>
        <mxCell id="UwHMT7bVEP6EMX6R1qHx-42" value="加后缀" style="text;html=1;align=center;verticalAlign=middle;whiteSpace=wrap;rounded=0;fontFamily=Architects Daughter;fontSource=https%3A%2F%2Ffonts.googleapis.com%2Fcss%3Ffamily%3DArchitects%2BDaughter;" vertex="1" parent="1">
          <mxGeometry x="350" y="-20" width="60" height="30" as="geometry" />
        </mxCell>
        <mxCell id="UwHMT7bVEP6EMX6R1qHx-43" value="加前缀和中间" style="text;html=1;align=center;verticalAlign=middle;whiteSpace=wrap;rounded=0;fontFamily=Architects Daughter;fontSource=https%3A%2F%2Ffonts.googleapis.com%2Fcss%3Ffamily%3DArchitects%2BDaughter;" vertex="1" parent="1">
          <mxGeometry x="340" y="37.5" width="90" height="30" as="geometry" />
        </mxCell>
        <mxCell id="UwHMT7bVEP6EMX6R1qHx-44" value="加前缀和后缀" style="text;html=1;align=center;verticalAlign=middle;whiteSpace=wrap;rounded=0;fontFamily=Architects Daughter;fontSource=https%3A%2F%2Ffonts.googleapis.com%2Fcss%3Ffamily%3DArchitects%2BDaughter;" vertex="1" parent="1">
          <mxGeometry x="340" y="85" width="90" height="30" as="geometry" />
        </mxCell>
        <mxCell id="UwHMT7bVEP6EMX6R1qHx-45" value="我是习尼玛近平的爹" style="text;html=1;align=center;verticalAlign=middle;whiteSpace=wrap;rounded=0;fontFamily=Architects Daughter;fontSource=https%3A%2F%2Ffonts.googleapis.com%2Fcss%3Ffamily%3DArchitects%2BDaughter;" vertex="1" parent="1">
          <mxGeometry x="200" y="190" width="110" height="25" as="geometry" />
        </mxCell>
        <mxCell id="UwHMT7bVEP6EMX6R1qHx-46" value="加前缀、中间和后缀" style="text;html=1;align=center;verticalAlign=middle;whiteSpace=wrap;rounded=0;fontFamily=Architects Daughter;fontSource=https%3A%2F%2Ffonts.googleapis.com%2Fcss%3Ffamily%3DArchitects%2BDaughter;" vertex="1" parent="1">
          <mxGeometry x="340" y="185" width="120" height="30" as="geometry" />
        </mxCell>
        <mxCell id="UwHMT7bVEP6EMX6R1qHx-47" value="全等" style="text;html=1;align=center;verticalAlign=middle;whiteSpace=wrap;rounded=0;fontFamily=Architects Daughter;fontSource=https%3A%2F%2Ffonts.googleapis.com%2Fcss%3Ffamily%3DArchitects%2BDaughter;" vertex="1" parent="1">
          <mxGeometry x="360" y="-130" width="60" height="30" as="geometry" />
        </mxCell>
        <mxCell id="UwHMT7bVEP6EMX6R1qHx-48" value="习尼玛近平的爹" style="text;html=1;align=center;verticalAlign=middle;whiteSpace=wrap;rounded=0;fontFamily=Architects Daughter;fontSource=https%3A%2F%2Ffonts.googleapis.com%2Fcss%3Ffamily%3DArchitects%2BDaughter;" vertex="1" parent="1">
          <mxGeometry x="190" y="130" width="110" height="25" as="geometry" />
        </mxCell>
        <mxCell id="UwHMT7bVEP6EMX6R1qHx-49" value="加中间和后缀" style="text;html=1;align=center;verticalAlign=middle;whiteSpace=wrap;rounded=0;fontFamily=Architects Daughter;fontSource=https%3A%2F%2Ffonts.googleapis.com%2Fcss%3Ffamily%3DArchitects%2BDaughter;" vertex="1" parent="1">
          <mxGeometry x="330" y="125" width="120" height="30" as="geometry" />
        </mxCell>
        <mxCell id="UwHMT7bVEP6EMX6R1qHx-50" value="&lt;h1 style=&quot;margin-top: 0px;&quot;&gt;匹配方法&lt;/h1&gt;&lt;p&gt;对用户说的话逐字匹配&lt;/p&gt;&lt;p&gt;兼容前缀匹配：&lt;/p&gt;&lt;p&gt;当该字符没有进入路径且字符没有匹配上时，跳到下个字符匹配&lt;/p&gt;&lt;p&gt;兼容中间插入匹配：&lt;/p&gt;&lt;p&gt;当有字符进入路径后，后续字符没匹配到，跳到下个字符进行匹配），都匹配到了算命中&lt;/p&gt;&lt;p&gt;兼容后缀匹配：&lt;/p&gt;&lt;p&gt;无需额外处理&lt;/p&gt;&lt;p&gt;兼容多关键字：&lt;/p&gt;&lt;p&gt;遍历字符串时，命中时保存命中路径，当命中路径不一样时保存新的命中路径&lt;/p&gt;" style="text;html=1;whiteSpace=wrap;overflow=hidden;rounded=0;fontFamily=Architects Daughter;fontSource=https%3A%2F%2Ffonts.googleapis.com%2Fcss%3Ffamily%3DArchitects%2BDaughter;" vertex="1" parent="1">
          <mxGeometry x="640" y="-130" width="180" height="400" as="geometry" />
        </mxCell>
        <mxCell id="UwHMT7bVEP6EMX6R1qHx-51" value="彭丽媛" style="text;html=1;align=center;verticalAlign=middle;whiteSpace=wrap;rounded=0;fontFamily=Architects Daughter;fontSource=https%3A%2F%2Ffonts.googleapis.com%2Fcss%3Ffamily%3DArchitects%2BDaughter;" vertex="1" parent="1">
          <mxGeometry x="220" y="260" width="60" height="30" as="geometry" />
        </mxCell>
        <mxCell id="UwHMT7bVEP6EMX6R1qHx-52" value="未命中" style="text;html=1;align=center;verticalAlign=middle;whiteSpace=wrap;rounded=0;fontFamily=Architects Daughter;fontSource=https%3A%2F%2Ffonts.googleapis.com%2Fcss%3Ffamily%3DArchitects%2BDaughter;" vertex="1" parent="1">
          <mxGeometry x="360" y="260" width="60" height="30" as="geometry" />
        </mxCell>
        <mxCell id="UwHMT7bVEP6EMX6R1qHx-53" value="昨天习尼玛近平在天安门发表&lt;font face=&quot;Helvetica&quot;&gt;64&lt;/font&gt;事件解说" style="text;html=1;align=center;verticalAlign=middle;whiteSpace=wrap;rounded=0;fontFamily=Architects Daughter;fontSource=https%3A%2F%2Ffonts.googleapis.com%2Fcss%3Ffamily%3DArchitects%2BDaughter;" vertex="1" parent="1">
          <mxGeometry x="110" y="340" width="240" height="30" as="geometry" />
        </mxCell>
        <mxCell id="UwHMT7bVEP6EMX6R1qHx-54" value="命中多个" style="text;html=1;align=center;verticalAlign=middle;whiteSpace=wrap;rounded=0;fontFamily=Architects Daughter;fontSource=https%3A%2F%2Ffonts.googleapis.com%2Fcss%3Ffamily%3DArchitects%2BDaughter;" vertex="1" parent="1">
          <mxGeometry x="327.90999999999997" y="340" width="200" height="30" as="geometry" />
        </mxCell>
      </root>
    </mxGraphModel>
  </diagram>
</mxfile>
